<?xml version="1.0" encoding="UTF-8"?><svg id="Layer_1" xmlns="http://www.w3.org/2000/svg" viewBox="0 0 130 100"><path d="M116,1c7.17,0,13,5.83,13,13v72c0,7.17-5.83,13-13,13h-14c-.55,0-1-.45-1-1v-2c0-2.76-2.24-5-5-5h-62c-2.76,0-5,2.24-5,5v2c0,.55-.45,1-1,1h-14c-7.17,0-13-5.83-13-13V14C1,6.83,6.83,1,14,1h102M116,0H14C6.27,0,0,6.27,0,14v72c0,7.73,6.27,14,14,14h14c1.1,0,2-.9,2-2v-2c0-2.21,1.79-4,4-4h62c2.21,0,4,1.79,4,4v2c0,1.1.9,2,2,2h14c7.73,0,14-6.27,14-14V14c0-7.73-6.27-14-14-14h0Z" fill="#dedeff" stroke-width="0"/><rect x="32" y="94" width="66" height="6" rx="3" ry="3" fill="#0ab432" stroke-width="0"/></svg>