<?xml version="1.0" encoding="UTF-8"?><svg id="Star" xmlns="http://www.w3.org/2000/svg" width="80" height="80" viewBox="0 0 80 80"><defs><style>.cls-1{fill:#c7b299;}.cls-1,.cls-2,.cls-3{stroke-width:0px;}.cls-2{fill:#0a1d29;}.cls-3{fill:#ac8a5d;}</style></defs><circle class="cls-2" cx="40" cy="40" r="39.92"/><g id="star_icon"><path class="cls-3" d="M37.46,63.93c.65-11.89.72-19.98-.76-21.46-1.57-1.57-14.79-2.55-24.71-3.08,10.09-.58,23.64-1.61,25.18-2.98,1.65-1.47,4.04-12.84,5.48-20.37-.15,7.67-.14,18.83,1.18,20.33,1.23,1.4,13.98,2.42,23.95,3.01-9.76.5-22.58,1.45-24.39,3.08-1.79,1.6-3.88,11.01-5.92,21.48Z"/><path class="cls-1" d="M42.07,21.55c-.02,6.94.26,13.87,1.38,15.14.46.53,1.31,1.5,16.55,2.65-7.91.57-15.51,1.44-16.95,2.74-1.47,1.31-2.99,6.75-4.78,15.31.36-9.73-.03-14.08-1.21-15.27-.49-.49-1.63-1.63-17.11-2.73,8.35-.62,16.3-1.49,17.56-2.61,1.39-1.24,3.15-8.36,4.57-15.22M43.33,9.46s-4.21,24.54-6.5,26.57c-2.28,2.03-35.63,3.39-35.63,3.39,0,0,32.81,1.07,35.14,3.39,2.33,2.33.03,27.73.29,27.73s4.31-25.26,7.07-27.73c2.76-2.47,35.08-3.39,35.08-3.39,0,0-32.81-1.36-34.59-3.39-1.78-2.03-.87-26.57-.87-26.57h0Z"/></g></svg>