<?xml version="1.0" encoding="UTF-8"?><svg id="Layer_2" xmlns="http://www.w3.org/2000/svg" width="81.23" height="66.19" viewBox="0 0 81.23 66.19"><defs><style>.cls-1{fill:#dedeff;stroke-width:0px;}</style></defs><g id="Import_Icon"><g id="Upload_Icon"><path class="cls-1" d="M40,.58c.4.26.85.48,1.2.8,2.8,2.6,5.57,5.23,8.37,7.83.57.53.81,1.13.59,1.84-.19.64-.7,1.01-1.4,1.13-.68.11-1.2-.16-1.67-.6-1.67-1.57-3.35-3.14-5.03-4.71-.18-.17-.38-.33-.7-.61,0,.41,0,.65,0,.9,0,4.98,0,9.96,0,14.94,0,.9-.51,1.49-1.37,1.68-.78.16-1.61-.18-1.92-.87-.14-.31-.18-.68-.18-1.02-.01-4.91,0-9.82,0-14.73,0-.25,0-.5,0-.9-.32.28-.52.44-.7.61-1.66,1.55-3.32,3.11-4.98,4.66-.93.86-1.92.93-2.7.19-.73-.7-.65-1.72.23-2.54,2.82-2.65,5.64-5.3,8.48-7.93.29-.27.69-.44,1.04-.65.25,0,.5,0,.75,0Z"/><path class="cls-1" d="M28.32,32.16c-3.85,0-4.65-3.01-4.64-4.13.01-1,.76-1.73,1.74-1.75.96-.01,1.37,1.38,1.76,1.65s.68.91,2.04.91c6.94,0,13.87,0,20.81,0,1.35,0,1.7-.49,2.05-.76s.74-1.8,1.75-1.79c1.01.01,1.75.75,1.75,1.81,0,1.33-1.29,4.07-4.64,4.07h-22.61Z"/></g><path class="cls-1" d="M2.53,62.18v-12.42h1.98v12.42h-1.98Z"/><path class="cls-1" d="M22.69,62.18h-1.96v-6.1c0-1.42,0-3.13.04-4.45-.36,1.31-.88,3.02-1.35,4.43l-2,6.12h-2.29l-2.02-6.14c-.45-1.39-.97-3.08-1.31-4.39.04,1.33.04,3.01.04,4.43v6.1h-1.98v-12.42h3.19l3.28,10.66,3.28-10.66h3.1v12.42Z"/><path class="cls-1" d="M37.07,53.52c0,2.2-1.48,3.46-3.28,3.69-.58.07-1.03.07-1.69.07h-2.09v4.9h-1.98v-12.42h4.07c.67,0,1.12,0,1.69.07,1.94.25,3.28,1.49,3.28,3.69ZM34.99,53.52c0-1.31-.7-1.93-1.57-2.09-.32-.05-.76-.07-1.26-.07h-2.14v4.32h2.14c.5,0,.94-.02,1.26-.07.86-.16,1.57-.77,1.57-2.09Z"/><path class="cls-1" d="M52.5,55.97c0,3.83-2.18,6.46-5.98,6.46s-6-2.63-6-6.46,2.18-6.46,6-6.46,5.98,2.61,5.98,6.46ZM50.38,55.97c0-3.1-1.44-4.95-3.85-4.95s-3.87,1.85-3.87,4.95,1.44,4.95,3.87,4.95,3.85-1.87,3.85-4.95Z"/><path class="cls-1" d="M66.61,62.18h-2.18c-.32-.81-.49-1.58-.63-2.95-.16-1.31-.65-2.14-1.78-2.21-.31-.02-.61-.02-.92-.02h-1.93v5.19h-1.98v-12.42h4.29c.67,0,1.12,0,1.71.07,1.8.23,3.15,1.19,3.15,3.31,0,1.62-.99,2.58-2.3,2.97,1.12.49,1.58,1.57,1.71,2.86.14,1.57.36,2.52.86,3.21ZM61.25,55.46c.5,0,.81,0,1.12-.04,1.08-.11,1.89-.72,1.89-2.03s-.67-1.86-1.73-2c-.32-.05-.65-.07-1.15-.07h-2.2v4.14h2.07Z"/><path class="cls-1" d="M76.08,51.32v10.86h-1.96v-10.86h-4.34v-1.57h10.64v1.57h-4.34Z"/></g></svg>