<?xml version="1.0" encoding="UTF-8"?><svg id="Layer_2" xmlns="http://www.w3.org/2000/svg" viewBox="0 0 81.23 66.69"><g id="Export_Icon"><path d="M10.3,62.68H1.71v-12.42h8.41v1.57H3.69v3.85h5.92v1.57H3.69v3.85h6.61v1.58Z" fill="#dedeff" stroke-width="0"/><path d="M19.1,57.66l-3.24,5.02h-2.32l4.45-6.27-4.12-6.16h2.27l3.06,4.86,3.19-4.86h2.27l-4.32,6.1,4.47,6.32h-2.3l-3.38-5.02Z" fill="#dedeff" stroke-width="0"/><path d="M37.89,54.02c0,2.2-1.48,3.46-3.28,3.69-.58.07-1.03.07-1.69.07h-2.09v4.9h-1.98v-12.42h4.07c.67,0,1.12,0,1.69.07,1.94.25,3.28,1.49,3.28,3.69ZM35.8,54.02c0-1.31-.7-1.93-1.57-2.09-.32-.05-.76-.07-1.26-.07h-2.14v4.32h2.14c.5,0,.94-.02,1.26-.07.86-.16,1.57-.77,1.57-2.09Z" fill="#dedeff" stroke-width="0"/><path d="M53.32,56.47c0,3.83-2.18,6.46-5.98,6.46s-6-2.63-6-6.46,2.18-6.46,6-6.46,5.98,2.61,5.98,6.46ZM51.19,56.47c0-3.1-1.44-4.95-3.85-4.95s-3.87,1.85-3.87,4.95,1.44,4.95,3.87,4.95,3.85-1.87,3.85-4.95Z" fill="#dedeff" stroke-width="0"/><path d="M67.43,62.68h-2.18c-.32-.81-.49-1.58-.63-2.95-.16-1.31-.65-2.14-1.78-2.21-.31-.02-.61-.02-.92-.02h-1.93v5.19h-1.98v-12.42h4.29c.67,0,1.12,0,1.71.07,1.8.23,3.15,1.19,3.15,3.31,0,1.62-.99,2.58-2.3,2.97,1.12.49,1.58,1.57,1.71,2.86.14,1.57.36,2.52.86,3.21ZM62.07,55.96c.5,0,.81,0,1.12-.04,1.08-.11,1.89-.72,1.89-2.03s-.67-1.86-1.73-2c-.32-.05-.65-.07-1.15-.07h-2.2v4.14h2.07Z" fill="#dedeff" stroke-width="0"/><path d="M76.9,51.82v10.86h-1.96v-10.86h-4.34v-1.57h10.64v1.57h-4.34Z" fill="#dedeff" stroke-width="0"/><g id="Paper"><path d="M50.62,27.5v2.5c0,1.1-.88,2-1.99,2h-18.02c-1.11,0-1.99-.9-1.99-2V3c0-1.1.9-2,2-2h14.59c.27,0,.52.11.71.29l4.41,4.41c.19.19.29.44.29.71v4.09" fill="none" stroke="#dedeff" stroke-linecap="round" stroke-miterlimit="10" stroke-width="2"/><path d="M50.62,6c0,.55-.45,1-1,1h-4c-.55,0-1-.45-1-1V2c0-.55.45-1,1-1l5,5Z" fill="none" stroke="#dedeff" stroke-miterlimit="10" stroke-width="2"/></g><path d="M60.32,18.95c-.17.26-.32.56-.53.79-1.72,1.85-3.45,3.68-5.17,5.52-.35.37-.74.53-1.21.39-.42-.13-.67-.46-.74-.92-.08-.45.11-.79.39-1.1,1.04-1.1,2.07-2.21,3.11-3.32.11-.12.22-.25.4-.46-.27,0-.43,0-.59,0-3.29,0-6.57,0-9.86,0-.59,0-.99-.33-1.11-.9-.11-.52.12-1.06.57-1.27.2-.09.45-.12.67-.12,3.24,0,6.48,0,9.72,0,.16,0,.33,0,.59,0-.18-.21-.29-.34-.4-.46-1.02-1.1-2.05-2.19-3.07-3.29-.57-.61-.61-1.26-.12-1.78.46-.48,1.13-.43,1.68.15,1.75,1.86,3.49,3.72,5.23,5.59.18.19.29.45.43.68,0,.16,0,.33,0,.49Z" fill="#dedeff" stroke-width="0"/></g></svg>