<?xml version="1.0" encoding="UTF-8"?><svg id="Layer_1" xmlns="http://www.w3.org/2000/svg" viewBox="0 0 66.73 65.61"><g id="Clear_Icon"><path d="M12.01,53.17l.02.18h-1.96l-.04-.18c-.34-1.67-1.37-2.74-3.24-2.74-2.3,0-3.76,1.98-3.76,4.92,0,3.08,1.48,4.99,3.67,4.99,1.87,0,2.9-1.1,3.24-2.77l.04-.18h1.96l-.02.18c-.25,2.43-2.07,4.29-5.31,4.29-3.55,0-5.73-2.63-5.73-6.41s2.45-6.52,5.94-6.52c3.24,0,4.93,1.8,5.19,4.25Z" fill="#dedeff" stroke-width="0"/><path d="M25.38,61.6h-8.59v-12.42h1.98v10.79h6.61v1.64Z" fill="#dedeff" stroke-width="0"/><path d="M38.31,61.6h-8.59v-12.42h8.41v1.57h-6.43v3.85h5.92v1.57h-5.92v3.85h6.61v1.58Z" fill="#dedeff" stroke-width="0"/><path d="M45.02,57.49l-1.35,4.11h-2.11l4.46-12.42h2.56l4.34,12.42h-2.14l-1.35-4.11h-4.41ZM48.91,55.93l-1.64-5.11-1.73,5.11h3.37Z" fill="#dedeff" stroke-width="0"/><path d="M66.42,61.6h-2.18c-.32-.81-.49-1.58-.63-2.95-.16-1.31-.65-2.14-1.78-2.21-.31-.02-.61-.02-.92-.02h-1.93v5.19h-1.98v-12.42h4.29c.67,0,1.12,0,1.71.07,1.8.23,3.15,1.19,3.15,3.31,0,1.62-.99,2.58-2.3,2.97,1.12.49,1.58,1.57,1.71,2.86.14,1.57.36,2.52.86,3.21ZM61.06,54.88c.5,0,.81,0,1.12-.04,1.08-.11,1.89-.72,1.89-2.03s-.67-1.86-1.73-2c-.32-.05-.65-.07-1.15-.07h-2.2v4.14h2.07Z" fill="#dedeff" stroke-width="0"/></g><polygon points="35.48 15.42 45.73 25.67 43.61 27.79 33.36 17.54 23.11 27.79 20.99 25.67 31.24 15.42 20.99 5.17 23.11 3.05 33.36 13.3 43.61 3.05 45.73 5.17 35.48 15.42" fill="#dedeff" stroke-width="0"/></svg>