<?xml version="1.0" encoding="UTF-8"?><svg id="Layer_1" xmlns="http://www.w3.org/2000/svg" viewBox="0 0 68.12 68.69"><path d="M26,51c-13.79,0-25-11.21-25-25S12.22,1,26,1s25,11.21,25,25-11.21,25-25,25ZM26,7C15.8,7,7.5,15.52,7.5,26s8.3,19,18.5,19,18.5-8.52,18.5-19S36.2,7,26,7Z" fill="#dedeff" stroke-width="0"/><path d="M26,1.5c13.51,0,24.5,10.99,24.5,24.5s-10.99,24.5-24.5,24.5S1.5,39.51,1.5,26,12.49,1.5,26,1.5M26,45.5c10.48,0,19-8.75,19-19.5S36.48,6.5,26,6.5,7,15.25,7,26s8.52,19.5,19,19.5M26,.5C11.92.5.5,11.92.5,26s11.42,25.5,25.5,25.5,25.5-11.42,25.5-25.5S40.08.5,26,.5h0ZM26,44.5c-9.94,0-18-8.28-18-18.5S16.06,7.5,26,7.5s18,8.28,18,18.5-8.06,18.5-18,18.5h0Z" fill="#dedeff" stroke-width="0"/><path d="M67.83,64.86l-3.54,3.54c-.39.39-1.02.39-1.41,0l-24.04-24.04,4.95-4.95,24.04,24.04c.39.39.39,1.02,0,1.41Z" fill="#dedeff" stroke-width="0"/></svg>